Coordinates
version=1
nRows=11
nColumns=40
inDegrees=yes

Units are S.I. units (second, meters, Newtons, ...)
Angles are in degrees.

endheader
time	pelvis_tilt	pelvis_list	pelvis_rotation	pelvis_tx	pelvis_ty	pelvis_tz	hip_flexion_r	hip_adduction_r	hip_rotation_r	knee_angle_r	knee_angle_r_beta	ankle_angle_r	subtalar_angle_r	mtp_angle_r	hip_flexion_l	hip_adduction_l	hip_rotation_l	knee_angle_l	knee_angle_l_beta	ankle_angle_l	subtalar_angle_l	mtp_angle_l	lumbar_extension	lumbar_bending	lumbar_rotation	arm_flex_r	arm_add_r	arm_rot_r	elbow_flex_r	pro_sup_r	wrist_flex_r	wrist_dev_r	arm_flex_l	arm_add_l	arm_rot_l	elbow_flex_l	pro_sup_l	wrist_flex_l	wrist_dev_l
     52.56000000	     -5.89748312	     -5.74790750	      3.65744774	      0.99466304	      0.91885250	      0.45723096	      0.03626972	      5.13150575	    -16.84409967	      9.19994889	      9.19994889	     16.51903843	      5.32130365	     -3.54791357	     32.66927660	     -6.68583838	     -2.39214588	     19.91115042	     19.91115042	      4.54960736	    -10.88540130	      8.32037649	     -8.79728650	      6.91810151	      4.05937480	     43.78900157	    -13.71168318	     -1.29484454	    101.85404420	     43.75779082	      0.00000000	      0.00000000	    -10.10981394	     -7.39771274	      0.26527968	     25.81571424	     45.74426769	      0.00000000	      0.00000000
     52.57200000	     -5.93775408	     -5.79192638	      3.57227595	      0.99629594	      0.91750692	      0.45583558	     -0.28994398	      5.00235885	    -16.89870201	      9.80552921	      9.80552921	     17.80042555	      5.64888475	     -1.54741731	     32.13671676	     -6.62944094	     -2.12885386	     20.02789451	     20.02789451	      2.57070574	    -12.38827917	      5.43393376	     -8.63143915	      6.88273899	      4.35815734	     43.24329277	    -13.90625635	     -1.35824997	    104.54603087	     43.83827573	      0.00000000	      0.00000000	    -10.09744145	     -7.48401782	      0.51098402	     26.12047743	     45.71026955	      0.00000000	      0.00000000
     52.58400000	     -5.94438443	     -5.67582569	      3.40755657	      0.99790606	      0.91645047	      0.45447102	     -0.78042645	      4.75040558	    -16.65873195	     10.07300134	     10.07300134	     18.15428475	      5.60921329	     -1.63779320	     31.84048801	     -6.56246245	     -2.31870946	     20.74758648	     20.74758648	      2.23190697	    -12.90429101	      5.43678997	     -8.42717822	      6.66093902	      4.30015089	     43.12087036	    -13.67901617	     -1.16964056	    104.96517701	     43.82390922	      0.00000000	      0.00000000	    -10.11226476	     -7.48311616	      0.51667436	     26.13286340	     45.70923135	      0.00000000	      0.00000000
     52.59600000	     -6.06732947	     -5.62917704	      3.34680714	      0.99917546	      0.91527307	      0.45284441	     -0.81557279	      4.48128440	    -16.44934942	     10.93426760	     10.93426760	     18.66896082	      5.15272270	     -1.66227589	     31.80390262	     -6.42464642	     -2.08425841	     21.53258762	     21.53258762	      1.81320748	    -13.89333657	      5.20992889	     -8.22047487	      6.56425294	      4.03143491	     42.83439178	    -13.47564191	     -0.70801729	    106.53465348	     43.77718646	      0.00000000	      0.00000000	    -10.07758629	     -7.47403678	      0.51049233	     26.26934983	     45.71107122	      0.00000000	      0.00000000
     52.60800000	     -5.98618547	     -5.42308265	      3.26752981	      1.00066052	      0.91484063	      0.45111329	     -1.30395455	      4.09804311	    -16.23783803	     11.35795361	     11.35795361	     18.93150827	      4.95968689	     -1.69914730	     31.49546072	     -6.20739110	     -2.14516810	     22.29171917	     22.29171917	      1.77469386	    -14.39322349	      5.03875986	     -8.18186873	      6.23161624	      3.91230483	     42.31304985	    -13.35884596	     -0.51196800	    106.83502185	     43.76418815	      0.00000000	      0.00000000	     -9.83070282	     -7.49556140	      0.51048641	     26.36844920	     45.71537805	      0.00000000	      0.00000000
     52.62000000	     -6.12231404	     -5.27747605	      3.19680899	      1.00167777	      0.91417212	      0.44920976	     -1.00560661	      3.62456128	    -15.86585683	     12.79225004	     12.79225004	     19.38896122	      4.09553779	     -1.71586825	     31.54320259	     -5.95828553	     -1.95133955	     23.15387724	     23.15387724	      1.75402208	    -15.27754047	      4.69640843	     -8.01931894	      6.04512367	      3.85926433	     41.60198002	    -13.51592614	     -0.13789069	    108.35611713	     43.72161301	      0.00000000	      0.00000000	     -9.47822079	     -7.49198818	      0.50050229	     26.51355059	     45.72346779	      0.00000000	      0.00000000
     52.63200000	     -6.10010595	     -5.07134584	      3.14024843	      1.00282847	      0.91415549	      0.44713678	     -0.98526289	      3.11426074	    -15.53104126	     14.00872719	     14.00872719	     19.64650021	      3.40545016	     -1.73783774	     31.34154786	     -5.67279202	     -1.88776382	     23.91901131	     23.91901131	      2.04166717	    -15.82697146	      4.47403639	     -8.02282525	      5.77132575	      3.90370079	     40.62191411	    -13.78297595	      0.05772807	    109.24662793	     43.70373052	      0.00000000	      0.00000000	     -8.92509804	     -7.50214874	      0.51155047	     26.60964448	     45.73178370	      0.00000000	      0.00000000
     52.64400000	     -6.02713410	     -4.88733720	      3.08446270	      1.00400096	      0.91455753	      0.44493273	     -0.98958010	      2.60241159	    -15.27263406	     15.26210320	     15.26210320	     19.72277674	      2.84462700	     -1.90106792	     31.02575478	     -5.40503550	     -1.84624373	     24.60010273	     24.60010273	      2.55611263	    -16.21651686	      4.33513828	     -8.08479547	      5.55669803	      3.81465540	     39.58634166	    -13.90502699	      0.21927703	    109.65719334	     43.69527647	      0.00000000	      0.00000000	     -8.34904298	     -7.50613172	      0.53176969	     26.68482697	     45.73885714	      0.00000000	      0.00000000
     52.65600000	     -6.02368101	     -4.67335377	      3.02689191	      1.00498384	      0.91508292	      0.44260080	     -0.60763465	      1.95939427	    -15.01311670	     17.07354126	     17.07354126	     19.71163825	      2.06768986	     -2.31479549	     30.73500133	     -5.08812619	     -1.84030119	     25.18896705	     25.18896705	      3.19574065	    -16.49257345	      4.36298512	     -8.09187337	      5.28785732	      3.81778977	     38.33675276	    -14.15940435	      0.38544636	    110.02250816	     43.68982616	      0.00000000	      0.00000000	     -7.64207140	     -7.46215911	      0.55147053	     26.77866737	     45.74817197	      0.00000000	      0.00000000
     52.66800000	     -5.90343944	     -4.51502033	      2.95307234	      1.00609900	      0.91607851	      0.44017551	     -0.34646397	      1.35853867	    -14.79830072	     18.87348898	     18.87348898	     19.49256113	      1.46415481	     -2.81610670	     30.21177760	     -4.82913614	     -1.82536774	     25.62502258	     25.62502258	      3.88852220	    -16.67079631	      4.38613439	     -8.21741592	      5.14465923	      3.76716996	     36.94560497	    -14.31501695	      0.56252437	    110.00266179	     43.69052060	      0.00000000	      0.00000000	     -6.96696024	     -7.45907672	      0.55155854	     26.92656390	     45.75974952	      0.00000000	      0.00000000
     52.68000000	     -5.98081050	     -4.33774785	      2.88109049	      1.00697420	      0.91692871	      0.43767606	      0.49029470	      0.62420544	    -14.58960168	     21.30659161	     21.30659161	     19.05181301	      0.63849479	     -3.85122527	     29.78801857	     -4.52580723	     -1.89010296	     25.83358602	     25.83358602	      4.66093703	    -16.71223669	      4.67970090	     -8.11663118	      4.95933849	      3.86793534	     35.41462339	    -14.74323754	      0.62038317	    109.87441815	     43.70437400	      0.00000000	      0.00000000	     -6.15122156	     -7.35939174	      0.53523872	     27.15460787	     45.77572840	      0.00000000	      0.00000000
